<svg width="108" height="54" viewBox="0 0 108 54" fill="none" xmlns="http://www.w3.org/2000/svg">
<path d="M6.02532 40.7188H6.813L12.795 53.9999H11.6264L6.39768 42.4146L1.22064 53.9999H0L6.02532 40.7188Z" fill="white"/>
<path d="M17.6826 53.9999V40.7188H23.5435C26.0367 40.7188 28.0624 42.4931 28.0624 44.7892C28.0624 47.068 26.0194 48.8596 23.5435 48.8596H18.7993V54H17.6826V53.9999ZM18.7993 47.8941H23.5434C25.4047 47.8941 26.9542 46.5027 26.9542 44.7892C26.9542 43.0669 25.4133 41.7017 23.5434 41.7017H18.7993V47.8941Z" fill="white"/>
<path d="M33.6335 53.9999V40.7188H39.0788C43.1129 40.7188 46.4631 43.65 46.4631 47.3549C46.4631 51.0688 43.1216 53.9999 39.0788 53.9999H33.6335ZM39.0788 53.0258C42.5242 53.0258 45.3464 50.5211 45.3464 47.3549C45.3464 44.1976 42.5156 41.6927 39.0788 41.6927H34.7504V53.0258H39.0788Z" fill="white"/>
<path d="M56.2679 40.7188H57.0554L63.0374 53.9999H61.8689L56.6401 42.4146L51.4632 53.9999H50.2424L56.2679 40.7188Z" fill="white"/>
<path d="M74.8508 40.7188V41.7016H70.7474V53.9999H69.6393V41.7017H65.51V40.7189H74.8508V40.7188Z" fill="white"/>
<path d="M81.7462 53.0251V47.3811H86.4012V46.3986H81.7462V41.6924H89.2964V40.7183H80.6299V53.9997H89.8838V53.0253H81.7462V53.0251Z" fill="white"/>
<path d="M95.1704 53.9999V40.7188H100.616C104.65 40.7188 108 43.65 108 47.3549C108 51.0688 104.658 53.9999 100.616 53.9999H95.1704ZM100.616 53.0258C104.061 53.0258 106.883 50.5211 106.883 47.3549C106.883 44.1976 104.052 41.6927 100.616 41.6927H96.2871V53.0258H100.616Z" fill="white"/>
<path d="M54.1122 0L34.4744 35.2706L34.8484 35.4903L55.1919 1.93768L54.1122 0Z" fill="#FCD228"/>
<path d="M57.2412 5.62191L56.1667 3.68652L38.5808 35.2708L38.9545 35.4912L57.1744 5.73054L57.2412 5.62191Z" fill="#FCD228"/>
<path d="M58.2038 7.34668L42.657 35.2708L43.0301 35.4922L59.2755 9.27423L58.2038 7.34668Z" fill="#FCD228"/>
<path d="M60.293 11.1016L46.8367 35.2707L47.2088 35.4934L61.3576 13.0144L60.293 11.1016Z" fill="#FCD228"/>
<path d="M62.2859 14.6792L50.8196 35.2708L51.1907 35.4951L63.3447 16.5806L62.2859 14.6792Z" fill="#FCD228"/>
<path d="M64.3981 18.4741L55.1821 35.272L55.553 35.4967L65.4466 20.3602L64.3981 18.4741Z" fill="#FCD228"/>
<path d="M66.4455 22.1499L59.3379 35.2731L59.7076 35.4994L67.4819 24.0132L66.4455 22.1499Z" fill="#FCD228"/>
<path d="M68.4751 25.7939L63.542 35.2762L63.9109 35.5029L69.4813 27.602L68.4751 25.7939Z" fill="#FCD228"/>
<path d="M67.7825 35.5948H68.2634L71.5417 31.306L70.5802 29.5752L67.7825 35.5948Z" fill="#FCD228"/>
<path d="M72.7532 33.4756L72.0713 35.3902L72.3477 35.6736L73.4516 34.7403L72.7532 33.4756Z" fill="#FCD228"/>
</svg>
